<svg width="1451" height="121" viewBox="0 0 1451 121" fill="none" xmlns="http://www.w3.org/2000/svg">
<path d="M1405.36 120.546C1396.24 120.546 1388.32 118.606 1381.6 114.724C1374.89 110.737 1369.64 105.229 1365.86 98.1998C1362.19 91.1705 1360.36 83.1446 1360.36 74.1219C1360.36 64.9944 1362.19 56.916 1365.86 49.8867C1369.64 42.8575 1374.89 37.3495 1381.6 33.3627C1388.32 29.376 1396.24 27.3826 1405.36 27.3826C1414.49 27.3826 1422.41 29.376 1429.13 33.3627C1435.84 37.3495 1441.03 42.8575 1444.71 49.8867C1448.48 56.916 1450.37 64.9944 1450.37 74.1219C1450.37 83.1446 1448.48 91.1705 1444.71 98.1998C1441.03 105.229 1435.84 110.737 1429.13 114.724C1422.41 118.606 1414.49 120.546 1405.36 120.546ZM1405.36 109.845C1411.76 109.845 1417.43 108.429 1422.36 105.596C1427.4 102.764 1431.33 98.6719 1434.16 93.3212C1437 87.9706 1438.41 81.5708 1438.41 74.1219C1438.41 66.5681 1437 60.1159 1434.16 54.7652C1431.33 49.3097 1427.4 45.1656 1422.36 42.3329C1417.43 39.5002 1411.76 38.0839 1405.36 38.0839C1398.96 38.0839 1393.25 39.5002 1388.21 42.3329C1383.28 45.1656 1379.4 49.3097 1376.57 54.7652C1373.73 60.1159 1372.32 66.5681 1372.32 74.1219C1372.32 81.5708 1373.73 87.9706 1376.57 93.3212C1379.4 98.6719 1383.28 102.764 1388.21 105.596C1393.25 108.429 1398.96 109.845 1405.36 109.845Z" fill="white"/>
<path d="M1325.78 29.9006H1337.27V118.029H1325.78V29.9006ZM1324.52 0H1338.53V14.6355H1324.52V0Z" fill="white"/>
<path d="M1255.48 120.546C1247.72 120.546 1240.85 118.606 1234.87 114.724C1228.89 110.737 1224.22 105.229 1220.86 98.1998C1217.5 91.1705 1215.83 83.1446 1215.83 74.1219C1215.83 64.9944 1217.5 56.916 1220.86 49.8867C1224.22 42.8575 1228.89 37.3495 1234.87 33.3627C1240.85 29.376 1247.72 27.3826 1255.48 27.3826C1263.14 27.3826 1269.59 29.1662 1274.84 32.7332C1280.09 36.3003 1284.13 41.1264 1286.96 47.2114V101.032C1284.34 106.803 1280.4 111.524 1275.16 115.196C1269.91 118.763 1263.35 120.546 1255.48 120.546ZM1256.27 109.845C1263.09 109.845 1268.76 108.324 1273.27 105.281C1277.78 102.239 1281.19 98.0424 1283.5 92.6918C1285.8 87.2362 1286.96 81.0463 1286.96 74.1219C1286.96 67.0927 1285.8 60.9027 1283.5 55.5521C1281.19 50.0966 1277.78 45.8475 1273.27 42.805C1268.76 39.6576 1263.09 38.0839 1256.27 38.0839C1250.61 38.0839 1245.62 39.5002 1241.32 42.3329C1237.12 45.1656 1233.82 49.3097 1231.41 54.7652C1228.99 60.1159 1227.79 66.5681 1227.79 74.1219C1227.79 81.5708 1228.99 87.9706 1231.41 93.3212C1233.82 98.6719 1237.12 102.764 1241.32 105.596C1245.62 108.429 1250.61 109.845 1256.27 109.845ZM1286.96 118.029V0H1298.45V118.029H1286.96Z" fill="white"/>
<path d="M1193.34 118.029H1181.85V29.9006H1193.34V118.029ZM1181.85 74.594L1184.37 91.118C1184.37 93.8458 1183.79 96.8883 1182.64 100.246C1181.59 103.603 1179.75 106.855 1177.13 110.003C1174.61 113.045 1171.25 115.563 1167.06 117.556C1162.97 119.55 1157.83 120.546 1151.64 120.546C1145.97 120.546 1140.83 119.392 1136.21 117.084C1131.7 114.776 1128.14 110.947 1125.51 105.596C1122.89 100.246 1121.58 93.1114 1121.58 84.1937V29.9006H1133.07V82.1479C1133.07 88.2329 1133.75 93.3737 1135.11 97.5703C1136.58 101.767 1138.84 104.967 1141.88 107.17C1144.92 109.373 1148.96 110.475 1154 110.475C1159.24 110.475 1163.96 108.953 1168.16 105.911C1172.36 102.764 1175.66 98.5145 1178.07 93.1639C1180.59 87.7083 1181.85 81.5184 1181.85 74.594Z" fill="white"/>
<path d="M1051.92 29.9006H1098.34V39.6576H1051.92V29.9006ZM1068.28 7.86857H1079.77V97.2555C1079.77 101.137 1080.61 103.97 1082.29 105.754C1084.07 107.432 1086.59 108.272 1089.84 108.272H1100.86V118.029H1089.69C1082.55 118.029 1077.2 116.035 1073.64 112.048C1070.07 108.062 1068.28 103.131 1068.28 97.2555V7.86857Z" fill="white"/>
<path d="M956.728 82.9347C957.147 88.4952 958.826 93.2688 961.764 97.2555C964.701 101.137 968.583 104.127 973.409 106.226C978.34 108.219 983.848 109.216 989.933 109.216C999.271 109.216 1006.67 107.327 1012.12 103.55C1017.68 99.7735 1020.46 94.6851 1020.46 88.2854C1020.46 84.0888 1019.1 80.8364 1016.37 78.5283C1013.64 76.1153 1010.02 74.2793 1005.51 73.0203C1001 71.7614 996.071 70.7122 990.72 69.8729C985.369 68.9287 980.019 67.8795 974.668 66.7255C969.318 65.5714 964.387 63.9452 959.875 61.847C955.364 59.7487 951.744 56.8111 949.017 53.0342C946.289 49.1523 944.925 44.064 944.925 37.7691C944.925 31.8939 946.656 26.4909 950.118 21.5599C953.685 16.6289 958.721 12.6946 965.226 9.75703C971.731 6.81943 979.442 5.35063 988.359 5.35063C996.228 5.35063 1003.36 6.92435 1009.76 10.0718C1016.27 13.2192 1021.41 17.6256 1025.18 23.291C1029.07 28.8514 1031.01 35.3561 1031.01 42.805H1018.1C1017.68 34.4119 1015.01 27.9597 1010.08 23.4483C1005.25 18.937 997.749 16.6814 987.573 16.6814C977.501 16.6814 969.895 18.5698 964.754 22.3467C959.718 26.1237 957.2 31.2644 957.2 37.7691C957.2 42.2804 958.564 45.7951 961.292 48.313C964.019 50.831 967.639 52.7719 972.15 54.1358C976.662 55.3947 981.593 56.4439 986.943 57.2832C992.294 58.0176 997.644 58.9618 1003 60.1159C1008.35 61.165 1013.28 62.7387 1017.79 64.837C1022.3 66.8304 1025.92 69.7155 1028.65 73.4924C1031.37 77.1644 1032.74 82.0954 1032.74 88.2854C1032.74 98.567 1028.86 106.54 1021.09 112.206C1013.43 117.766 1002.73 120.546 988.989 120.546C980.491 120.546 972.832 118.92 966.013 115.668C959.298 112.311 953.948 107.799 949.961 102.134C946.079 96.4687 943.981 90.0689 943.666 82.9347H956.728Z" fill="white"/>
<path fill-rule="evenodd" clip-rule="evenodd" d="M248.412 36.1848C259.949 36.1848 269.667 37.6725 277.565 40.6477C285.552 43.6229 291.587 48.1919 295.669 54.3547C299.84 60.5177 301.926 68.3275 301.926 77.7844C301.926 87.2414 299.84 94.9982 295.669 101.055C291.587 107.111 285.552 111.628 277.565 114.603C269.667 117.578 259.949 119.066 248.412 119.066C236.875 119.066 227.069 117.578 218.993 114.603C210.917 111.628 204.794 107.112 200.623 101.055C196.452 94.9982 194.366 87.2414 194.366 77.7844C194.366 68.3275 196.452 60.5177 200.623 54.3547C204.794 48.1919 210.917 43.6229 218.993 40.6477C227.069 37.6725 236.875 36.1848 248.412 36.1848ZM248.412 55.9485C242.732 55.9485 237.763 56.7982 233.503 58.4983C229.332 60.1984 226.093 62.6426 223.785 65.8303C221.567 69.018 220.457 73.0029 220.457 77.7844C220.457 82.3535 221.567 86.2324 223.785 89.4202C226.004 92.6078 229.199 94.9982 233.37 96.592C237.63 98.1858 242.644 98.9827 248.412 98.9827C254.092 98.9827 258.973 98.1859 263.056 96.592C267.226 94.9982 270.421 92.6076 272.64 89.4202C274.858 86.2324 275.968 82.3535 275.968 77.7844C275.968 73.1091 274.858 69.1772 272.64 65.9895C270.421 62.6957 267.271 60.1984 263.188 58.4983C259.106 56.7982 254.181 55.9485 248.412 55.9485Z" fill="white"/>
<path fill-rule="evenodd" clip-rule="evenodd" d="M436.91 36.1848C448.447 36.1848 458.165 37.6725 466.063 40.6477C474.051 43.6229 480.086 48.1918 484.168 54.3547C488.339 60.5176 490.424 68.3276 490.424 77.7844C490.424 87.2413 488.339 94.9983 484.168 101.055C480.086 107.112 474.051 111.628 466.063 114.603C458.165 117.578 448.447 119.066 436.91 119.066C425.373 119.066 415.567 117.578 407.491 114.603C399.415 111.628 393.292 107.112 389.121 101.055C384.95 94.9982 382.864 87.2414 382.864 77.7844C382.864 68.3275 384.95 60.5177 389.121 54.3547C393.292 48.1918 399.415 43.6229 407.491 40.6477C415.567 37.6725 425.373 36.1848 436.91 36.1848ZM436.91 55.9485C431.231 55.9485 426.261 56.7982 422.001 58.4983C417.83 60.1984 414.591 62.6426 412.283 65.8303C410.065 69.018 408.956 73.0029 408.956 77.7844C408.956 82.3535 410.065 86.2324 412.283 89.4202C414.502 92.6078 417.697 94.9982 421.868 96.592C426.128 98.1859 431.142 98.9826 436.91 98.9827C442.59 98.9827 447.471 98.1859 451.554 96.592C455.724 94.9983 458.919 92.6076 461.138 89.4202C463.356 86.2324 464.466 82.3535 464.466 77.7844C464.466 73.1091 463.356 69.1772 461.138 65.9895C458.919 62.6957 455.769 60.1983 451.687 58.4983C447.604 56.7983 442.678 55.9485 436.91 55.9485Z" fill="white"/>
<path fill-rule="evenodd" clip-rule="evenodd" d="M825.111 36.1848C836.471 36.1848 845.833 37.7255 853.199 40.8069C860.565 43.7821 865.978 48.5637 869.439 55.1516C872.989 61.6333 874.631 70.187 874.365 80.8127H795.958C796.402 84.2129 797.645 87.2943 799.686 90.0569C801.815 92.8196 804.878 94.9982 808.871 96.592C812.953 98.1858 818.145 98.9826 824.445 98.9827C831.101 98.9827 836.604 98.1329 840.952 96.4329C845.389 94.7327 848.097 92.4483 849.073 89.5793H874.099C873.389 95.4234 871.126 100.577 867.31 105.039C863.582 109.396 858.258 112.849 851.336 115.4C844.414 117.844 835.761 119.066 825.378 119.066C814.107 119.066 804.345 117.631 796.092 114.762C787.838 111.893 781.404 107.43 776.789 101.373C772.263 95.2104 770 87.3474 770 77.7844C770 68.2213 772.219 60.3585 776.656 54.1956C781.093 48.0327 787.394 43.5167 795.559 40.6477C803.812 37.6725 813.663 36.1848 825.111 36.1848ZM824.047 55.9485C815.971 55.9485 809.67 57.3832 805.144 60.2522C800.618 63.1211 797.867 66.3092 796.891 69.8157H849.472C848.939 65.8841 846.588 62.5893 842.417 59.9329C838.335 57.2765 832.211 55.9485 824.047 55.9485Z" fill="white"/>
<path fill-rule="evenodd" clip-rule="evenodd" d="M676.102 62.5745C676.27 62.0607 676.446 61.5511 676.634 61.0481C678.497 55.948 681.248 51.5384 684.887 47.8196C688.525 44.1006 693.051 41.2311 698.465 39.2122C703.878 37.1933 710.136 36.1838 717.235 36.1838C725.666 36.1839 733.12 37.8314 739.599 41.1252C746.166 44.313 751.314 48.9887 755.041 55.1516C758.768 61.3145 760.632 68.806 760.632 77.6252C760.632 86.0194 758.723 93.3513 754.907 99.6204C751.18 105.783 746.033 110.565 739.466 113.965C732.987 117.259 725.577 118.905 717.235 118.906C710.225 118.906 704.012 117.79 698.599 115.559C693.185 113.327 688.614 110.299 684.887 106.474C681.248 102.649 678.497 98.2922 676.634 93.4045C676.444 92.8969 676.267 92.3854 676.097 91.8723C676.075 96.8127 675.901 101.52 675.568 105.995C675.213 110.777 674.859 114.39 674.504 116.834H650.543V6.37915H676.102V62.5745ZM708.05 56.7454C702.015 56.7454 696.557 57.4892 691.676 58.9768C686.884 60.3582 683.067 62.5898 680.228 65.6711C677.477 68.6463 676.102 72.6313 676.102 77.6252C676.102 82.3003 677.477 86.1787 680.228 89.26C683.067 92.2351 686.884 94.5197 691.676 96.1135C696.557 97.6011 702.015 98.345 708.05 98.345C713.552 98.345 718.255 97.5481 722.16 95.9543C726.065 94.2542 729.038 91.863 731.079 88.7815C733.209 85.5939 734.274 81.8753 734.274 77.6252C734.274 71.0373 731.966 65.9362 727.352 62.3235C722.826 58.6046 716.392 56.7454 708.05 56.7454Z" fill="white"/>
<path d="M75.2119 14.3489C81.0691 14.3489 86.5274 14.9859 91.5859 16.261C96.7329 17.4298 101.214 19.4489 105.03 22.3176C108.846 25.1866 111.819 29.0655 113.949 33.9534C116.168 38.8412 117.277 44.9508 117.277 52.2825C117.277 59.6143 116.168 65.5649 113.949 70.134C111.819 74.703 108.846 78.2626 105.03 80.8127C101.214 83.2566 96.733 84.957 91.5859 85.9133C86.5274 86.8697 81.0691 87.3479 75.2119 87.3479H48.3086L64.2822 64.3958H78.8066C82.3563 64.3957 85.2404 63.4392 87.459 61.5266C89.7663 59.614 90.9199 56.5327 90.9199 52.2825C90.9199 47.926 89.7663 44.8447 87.459 43.0383C85.2404 41.1257 82.3563 40.1693 78.8066 40.1692H26.4902V40.4124H26.3193V90.4905L26.2422 116.834H0V14.3489H75.2119Z" fill="white"/>
<path d="M187.02 62.3245C181.606 62.3245 176.725 63.1741 172.376 64.8743C168.116 66.5744 164.566 68.6462 161.727 71.0901C159.555 72.9593 157.825 74.7671 156.535 76.512V116.834H131.109V38.2571H156.535V63.9749C156.62 63.6957 156.709 63.411 156.802 63.1213C157.778 60.3586 159.065 57.4362 160.662 54.3547C162.348 51.167 164.434 48.1917 166.919 45.429C169.404 42.6664 172.288 40.4347 175.571 38.7346C178.944 37.0345 182.76 36.1848 187.02 36.1848V62.3245Z" fill="white"/>
<path d="M355.303 38.2561H375.67V58.6575H355.303V116.834H329.744V58.6575H309.244V38.2561H329.744V15.3049H355.303V38.2561Z" fill="white"/>
<path d="M543.882 90.0999L567.568 38.2561H595.656L555.721 116.833H531.626L493.022 38.2561H521.11L543.882 90.0999Z" fill="white"/>
<path d="M631.071 116.833H605.646V38.2561H631.071V116.833Z" fill="white"/>
<path d="M632.27 21.3606H604.447V0.00317383H632.27V21.3606Z" fill="white"/>
</svg>
